<?xml version="1.0" encoding="utf-8"?>
<!-- Generator: Adobe Illustrator 19.1.0, SVG Export Plug-In . SVG Version: 6.00 Build 0)  -->
<svg version="1.1" id="Layer_1" xmlns="http://www.w3.org/2000/svg" xmlns:xlink="http://www.w3.org/1999/xlink" x="0px" y="0px"
	 viewBox="0 0 76 120" style="enable-background:new 0 0 76 120;" xml:space="preserve">
<path d="M28.2,17c0.1,0.1,0,0.2,0,0.2c-0.1,0.1-0.2,0-0.2,0c-0.1-0.1,0-0.2,0-0.2C28.1,16.9,28.2,16.9,28.2,17z M76,28.9v74.4
	c-4,0-3.2,2.3-3.2,3.4c0,1.3-1.1,2.4-2.5,2.4c-1.3,0-2.5-1.1-2.5-2.4c0-1,0.4-3-2.1-3.4c-5.5,0.9-4.7,10.3-4.7,12.2
	c0,2.4-2,4.4-4.4,4.4c-2.4,0-4.4-2.2-4.4-4.6c0-2,0.9-12.5-5.6-12.5h0c-4.3,0-3.7,8.4-3.7,9.7c0,1.6-1.3,3-2.9,3
	c-1.6,0-2.9-1.2-2.9-2.8c0-1.3,0.6-9.5-3.7-9.5s-3.7,2.7-3.7,4.1c0,1.6-1.3,2.9-2.9,2.9c-1.6,0-2.9-1.3-2.9-2.9
	c0-1.3,0.6-4.1-3.7-4.1c-6.5,0-5.6,10.3-5.6,12.3c0,2.4-2,4.4-4.4,4.4S6,117.8,6,115.4c0-2,0.9-12.5-5.6-12.5H0v-74h17.2l-1.9-4.2
	l-5.2-10.8C22.5,15.6,25.7-1.7,38.2,0c-1.9,1.8-3.2,4.6-4.3,8c3.2,1,6.7,2.5,10.7,5.1c-11.3-1.6-15,12.5-24.9,13.8L29.6,47l0.6-0.5
	c3-1.4,6.3-2.2,9.8-2.2c4.6,0,8.9,1.4,12.5,3.8c-3.9-3.3-9-5.3-14.5-5.3c-3,0-5.9,1-8.5,2l-8-16H76z M33.1,15.7
	c0.1,0.1,0.2,0.1,0.2,0c0.1-0.1,0.1-0.2,0-0.2c-0.1-0.1-0.2-0.1-0.2,0C33.1,15.5,33,15.6,33.1,15.7z M31.8,15.8
	c0.2,0.3,0.5,0.3,0.8,0.2c0.3-0.2,0.3-0.5,0.2-0.8c-0.2-0.3-0.5-0.3-0.8-0.2C31.7,15.2,31.6,15.5,31.8,15.8z M19.2,14.8l3.5,5.3
	c0,0,0.1,0,0.2,0c0,0,0.1,0,0.1,0c0.1,0.2,0.1,0.4,0,0.6c-0.1,0.2-0.1,0.5,0.1,0.6c0.2,0.1,0.5,0.1,0.7-0.1c0.1-0.2,0-0.5,0-0.5h0
	c-0.5-0.7-0.1-0.9,0-1c0,0-0.1-0.1-0.1-0.1l1.1-0.7c0.1,0,0.1,0,0.1-0.1c0-0.1,0-0.1,0-0.1c0,0,0,0,0,0l0,0l0,0
	c-0.3-0.5,0.1-1.1,0.7-1l0.8,0.2c0.1,0,0.1,0,0.2,0c0.1,0,0.1-0.1,0.1-0.1l0.2-0.9c0.1-0.6,0.9-0.7,1.2-0.2c0,0,0.1,0,0.1,0
	c0.1,0,0.1,0,0.1-0.1l1.8-1.2c0,0,0.1,0,0.1-0.1c0-0.1,0,0,0-0.1l-2.3-3.6L27,10.4c0,0,0,0,0-0.1c-0.1-0.2-0.3-0.5,0-1l0,0
	C27.1,9.2,27.1,9,27,8.8c-0.1-0.2-0.4-0.3-0.6-0.1c-0.2,0.1-0.3,0.4-0.1,0.6c0.2,0.3,0.2,0.6-0.1,0.8c0,0,0,0.1,0,0.1L24.7,11
	c0,0-0.1,0-0.1,0.1l-0.4,2.1c-0.1,0.4-0.4,0.6-0.8,0.5l-2.1-0.4c-0.1,0-0.1,0-0.2,0.1l-1.8,1.2c0,0-0.1,0.1-0.2,0.1
	C19.2,14.7,19.2,14.8,19.2,14.8z M17.6,14.6c0.2,0.3,0.5,0.3,0.8,0.2c0.3-0.2,0.3-0.5,0.2-0.8c-0.2-0.3-0.5-0.3-0.8-0.2
	C17.5,14,17.4,14.3,17.6,14.6z M17.9,15.1c-0.1-0.1-0.2-0.1-0.2,0c-0.1,0.1-0.1,0.2,0,0.2c0.1,0.1,0.2,0.1,0.2,0
	C17.9,15.3,18,15.2,17.9,15.1z M27.1,48.4l-1-2.1c-6.4,4-10.6,11.1-10.6,19.1c0,7.8,4,14.7,10.1,18.8c-4.9-4.1-8.1-10.4-8.1-17.3
	C17.4,59.2,21.2,52.4,27.1,48.4z M60.6,70.3l-0.8-10.2l-1.1-0.3L58.3,59c-0.2-0.5-0.4-0.9-0.6-1.3c-0.5-0.1-1.1-0.3-1.6-0.4
	l-0.8,1.2l-2.2-0.2L52.5,57c-0.2,0-0.4,0-0.6,0c-3.9,0-7.5,1-10.7,2.7l0.2,2l-5.5,3.8l-1.2-0.6c-1.7,2-3.1,4.3-4.1,6.8l0.9,1
	l-0.6,2.1l-1.4,0.4c-0.3,1.5-0.5,3.1-0.5,4.8c0,1.5,0.1,3,0.4,4.4l2.7,2.3l1.5-0.7l0.6,0.2c1.9,0.6,3.9,0.9,6,0.9
	c1.8,0,3.6-0.2,5.3-0.7l0.7-0.2l0.8,0.6l5.3-2.7l0-1.1l0.5-0.5c3.4-2.8,5.7-6.6,6.7-10.9l0.2-0.7L60.6,70.3z M53.8,72
	c2.2,0,3.9-1.8,3.9-3.9s-1.8-3.9-3.9-3.9c-2.2,0-3.9,1.8-3.9,3.9S51.6,72,53.8,72z M48.5,65.3c0.7,0,1.3-0.6,1.3-1.3
	c0-0.7-0.6-1.3-1.3-1.3s-1.3,0.6-1.3,1.3C47.2,64.7,47.8,65.3,48.5,65.3z M47.1,67.5c0.3,0,0.5-0.2,0.5-0.5s-0.2-0.5-0.5-0.5
	s-0.5,0.2-0.5,0.5S46.8,67.5,47.1,67.5z M41.6,80.8c-0.6-0.4-1.4-0.3-1.8,0.3c-0.4,0.6-0.3,1.4,0.3,1.8c0.6,0.4,1.4,0.3,1.8-0.3
	C42.4,82,42.2,81.2,41.6,80.8z M44,79.8c-0.2-0.2-0.6-0.1-0.8,0.1c-0.2,0.2-0.1,0.6,0.1,0.8c0.2,0.2,0.6,0.1,0.8-0.1
	C44.3,80.3,44.2,79.9,44,79.8z"/>
</svg>
